<svg xmlns="http://www.w3.org/2000/svg" width="256" height="256" viewBox="0 0 256 256"><path fill="#ED1D24" d="M0 256h256v-256h-256v256z"/><path fill="#fff" d="M49.865 82.268l19.504-50.839h-13.003l-13.003 33.892-13.003-33.892h-13.004l19.506 50.839v33.894h13.003v-33.894zm118.358-50.839l-16.254 42.367-16.254-42.367h-13.004v84.733h13.004v-56.495l10.84 28.25h10.832l10.836-28.25v56.495h13.006v-84.733h-13.006zm44.278 0c-14.421 0-26.108 12.662-26.108 28.279v28.28c0 15.618 11.688 28.279 26.108 28.279 14.417 0 26.104-12.661 26.104-28.279v-28.28c0-15.618-11.687-28.279-26.104-28.279zm13.052 56.559c0 7.81-5.845 14.14-13.052 14.14-7.211 0-13.056-6.33-13.056-14.14v-28.28c0-7.808 5.845-14.139 13.056-14.139 7.207 0 13.052 6.331 13.052 14.139v28.28zm-134.699-56.559c-14.419 0-26.107 12.662-26.107 28.279v28.28c0 15.618 11.688 28.279 26.107 28.279 14.416 0 26.104-12.661 26.104-28.279v-28.28c0-15.618-11.688-28.279-26.104-28.279zm13.05 56.559c0 7.81-5.844 14.14-13.051 14.14-7.21 0-13.056-6.33-13.056-14.14v-28.28c0-7.808 5.845-14.139 13.056-14.139 7.207 0 13.051 6.331 13.051 14.139v28.28zm92.728 52.306c-14.421 0-26.108 12.661-26.108 28.278v28.281c0 15.617 11.688 28.277 26.108 28.277 14.417 0 26.104-12.66 26.104-28.277v-28.281c0-15.617-11.687-28.278-26.104-28.278zm13.052 56.56c0 7.811-5.845 14.14-13.052 14.14-7.211 0-13.056-6.329-13.056-14.14v-28.28c0-7.808 5.845-14.14 13.056-14.14 7.207 0 13.052 6.332 13.052 14.14v28.28zm-90.321 12.78v-67.336h-13.467v80.804h53.87v-13.468h-40.403zM85.735 168.265h-.002c0-15.449-11.954-27.971-26.699-27.971s-26.699 12.521-26.699 27.971v27.971c0 15.447 11.954 27.969 26.699 27.969 2.953 0 5.793-.504 8.446-1.43l4.906 15.416h13.349l-7.251-22.793c4.497-5.005 7.251-11.746 7.251-19.162v-27.971zm-13.348 27.97c0 7.726-5.978 13.983-13.353 13.983-7.373 0-13.349-6.26-13.349-13.983v-27.971c0-7.724 5.976-13.986 13.349-13.986 7.375 0 13.353 6.263 13.353 13.986v27.971z"/></svg>